<svg xmlns="http://www.w3.org/2000/svg" xmlns:xlink="http://www.w3.org/1999/xlink" width="996" zoomAndPan="magnify" viewBox="0 0 747 227.999995" height="304" preserveAspectRatio="xMidYMid meet" version="1.0"><defs><g/><clipPath id="569fe0ff12"><path d="M 262.765625 0 L 398.515625 0 L 398.515625 86.25 L 262.765625 86.25 Z M 262.765625 0 " clip-rule="nonzero"/></clipPath></defs><g clip-path="url(#569fe0ff12)"><path fill="#d9d9d9" d="M 291.996094 47.054688 L 299.503906 51.386719 C 300.148438 51.757812 300.371094 52.589844 299.996094 53.234375 L 295.660156 60.742188 C 295.292969 61.386719 294.460938 61.609375 293.816406 61.238281 L 286.308594 56.902344 C 285.664062 56.527344 285.441406 55.699219 285.8125 55.054688 L 290.148438 47.542969 C 290.519531 46.90625 291.351562 46.683594 291.996094 47.054688 M 300.855469 31.707031 L 308.363281 36.042969 C 309.007812 36.414062 309.230469 37.242188 308.859375 37.886719 L 304.523438 45.394531 C 304.152344 46.039062 303.320312 46.265625 302.675781 45.890625 L 295.167969 41.554688 C 294.523438 41.183594 294.304688 40.351562 294.671875 39.707031 L 299.007812 32.199219 C 299.378906 31.558594 300.210938 31.335938 300.855469 31.707031 Z M 309.714844 16.359375 L 317.222656 20.695312 C 317.867188 21.066406 318.089844 21.898438 317.714844 22.542969 L 313.378906 30.050781 C 313.007812 30.695312 312.175781 30.914062 311.53125 30.542969 L 304.027344 26.210938 C 303.382812 25.839844 303.164062 25.007812 303.535156 24.363281 L 307.871094 16.855469 C 308.238281 16.210938 309.070312 15.988281 309.714844 16.359375 Z M 369.472656 71.324219 L 376.980469 75.660156 C 377.625 76.03125 377.84375 76.859375 377.476562 77.507812 L 373.140625 85.015625 C 372.769531 85.660156 371.9375 85.882812 371.292969 85.507812 L 363.785156 81.171875 C 363.140625 80.800781 362.917969 79.96875 363.292969 79.324219 L 367.628906 71.816406 C 367.996094 71.171875 368.828125 70.949219 369.472656 71.324219 Z M 378.332031 55.976562 L 385.839844 60.3125 C 386.484375 60.683594 386.703125 61.515625 386.335938 62.160156 L 382 69.667969 C 381.628906 70.316406 380.800781 70.539062 380.15625 70.164062 L 372.648438 65.828125 C 372.003906 65.457031 371.78125 64.625 372.152344 63.980469 L 376.488281 56.472656 C 376.859375 55.828125 377.6875 55.601562 378.332031 55.976562 Z M 381.371094 39.617188 L 385.003906 41.714844 L 381.011719 48.636719 C 380.640625 49.28125 380.859375 50.109375 381.503906 50.480469 L 389.011719 54.816406 C 389.65625 55.1875 390.484375 54.96875 390.859375 54.324219 L 394.855469 47.402344 L 398.398438 49.449219 L 377.007812 86.492188 L 354.3125 86.492188 Z M 287.140625 75.5 C 286.769531 76.144531 285.941406 76.367188 285.292969 75.992188 L 277.785156 71.660156 C 277.140625 71.289062 276.921875 70.457031 277.292969 69.8125 L 281.289062 62.890625 C 281.660156 62.25 282.488281 62.027344 283.132812 62.398438 L 290.640625 66.734375 C 291.289062 67.101562 291.511719 67.933594 291.136719 68.578125 Z M 285.519531 86.488281 L 290.683594 77.546875 L 294.675781 70.628906 L 329.777344 9.832031 L 326.238281 7.789062 L 322.242188 14.703125 C 321.871094 15.347656 321.042969 15.570312 320.394531 15.195312 L 312.886719 10.859375 C 312.246094 10.492188 312.019531 9.660156 312.394531 9.015625 L 316.390625 2.101562 L 312.757812 0 L 277.65625 60.796875 L 273.660156 67.714844 L 262.824219 86.488281 L 268.421875 86.488281 C 268.199219 86.089844 268.1875 85.585938 268.433594 85.160156 L 272.769531 77.652344 C 273.136719 77.007812 273.96875 76.789062 274.613281 77.160156 L 282.121094 81.496094 C 282.765625 81.867188 282.988281 82.695312 282.617188 83.339844 L 280.796875 86.488281 Z M 296.476562 86.488281 L 298.902344 82.289062 L 302.898438 75.371094 L 313.164062 57.589844 C 314.574219 55.148438 317.722656 54.304688 320.167969 55.714844 L 346.441406 70.882812 C 348.882812 72.292969 349.730469 75.445312 348.316406 77.886719 L 343.351562 86.488281 Z M 373.152344 34.871094 L 358.894531 59.570312 C 357.484375 62.011719 354.332031 62.859375 351.890625 61.449219 L 325.613281 46.277344 C 323.175781 44.867188 322.328125 41.71875 323.738281 39.273438 L 337.996094 14.574219 Z M 373.152344 34.871094 " fill-opacity="1" fill-rule="evenodd"/></g><g fill="#ffffff" fill-opacity="1"><g transform="translate(52.628019, 173.166026)"><g><path d="M 60.953125 -57.953125 L 25.671875 -57.953125 L 25.671875 -41.1875 L 58.15625 -41.1875 L 58.15625 -26.703125 L 25.671875 -26.703125 L 25.671875 0 L 7.25 0 L 7.25 -72.4375 L 60.953125 -72.4375 Z M 60.953125 -57.953125 "/></g></g></g><g fill="#ffffff" fill-opacity="1"><g transform="translate(115.131948, 173.166026)"><g><path d="M 25.671875 0 L 7.25 0 L 7.25 -72.4375 L 25.671875 -72.4375 Z M 25.671875 0 "/></g></g></g><g fill="#ffffff" fill-opacity="1"><g transform="translate(148.039646, 173.166026)"><g><path d="M 25.671875 -15.421875 L 56.40625 -15.421875 L 56.40625 0 L 7.25 0 L 7.25 -72.4375 L 25.671875 -72.4375 Z M 25.671875 -15.421875 "/></g></g></g><g fill="#ffffff" fill-opacity="1"><g transform="translate(205.99032, 173.166026)"><g><path d="M 55.359375 -13.34375 L 23.703125 -13.34375 L 18.421875 0 L -0.515625 0 L 30.734375 -72.4375 L 49.671875 -72.4375 L 80.203125 0 L 60.53125 0 Z M 49.984375 -27.3125 L 39.640625 -54.125 L 29.078125 -27.3125 Z M 49.984375 -27.3125 "/></g></g></g><g fill="#ffffff" fill-opacity="1"><g transform="translate(285.672479, 173.166026)"><g><path d="M 86.828125 0 L 70.578125 0 L 70.46875 -47.078125 L 53.09375 -7.25 L 41.078125 -7.25 L 23.703125 -47.078125 L 23.703125 0 L 7.25 0 L 7.25 -72.546875 L 27.421875 -72.546875 L 47.078125 -29.390625 L 66.75 -72.546875 L 86.828125 -72.546875 Z M 86.828125 0 "/></g></g></g><g fill="#ffffff" fill-opacity="1"><g transform="translate(379.8423, 173.166026)"><g><path d="M 72.4375 -72.4375 L 72.4375 -30.421875 C 72.4375 -20.835938 69.46875 -13.234375 63.53125 -7.609375 C 57.601562 -1.984375 49.566406 0.828125 39.421875 0.828125 C 29.210938 0.828125 21.085938 -1.984375 15.046875 -7.609375 C 9.015625 -13.234375 6 -20.835938 6 -30.421875 L 6 -72.4375 L 24.421875 -72.4375 L 24.421875 -30.421875 C 24.421875 -25.597656 25.816406 -21.753906 28.609375 -18.890625 C 31.398438 -16.023438 35.039062 -14.59375 39.53125 -14.59375 C 43.945312 -14.59375 47.484375 -16.003906 50.140625 -18.828125 C 52.796875 -21.660156 54.125 -25.523438 54.125 -30.421875 L 54.125 -72.4375 Z M 72.4375 -72.4375 "/></g></g></g><g fill="#ffffff" fill-opacity="1"><g transform="translate(488.374964, 173.449355)"><g><path d="M 74.09375 0 L 55.671875 0 L 55.671875 -28.140625 L 25.671875 -28.140625 L 25.671875 0 L 7.25 0 L 7.25 -72.4375 L 25.671875 -72.4375 L 25.671875 -42.640625 L 55.671875 -42.640625 L 55.671875 -72.4375 L 74.09375 -72.4375 Z M 74.09375 0 "/></g></g></g><g fill="#ffffff" fill-opacity="1"><g transform="translate(569.707558, 173.449355)"><g><path d="M 72.4375 -72.4375 L 72.4375 -30.421875 C 72.4375 -20.835938 69.46875 -13.234375 63.53125 -7.609375 C 57.601562 -1.984375 49.566406 0.828125 39.421875 0.828125 C 29.210938 0.828125 21.085938 -1.984375 15.046875 -7.609375 C 9.015625 -13.234375 6 -20.835938 6 -30.421875 L 6 -72.4375 L 24.421875 -72.4375 L 24.421875 -30.421875 C 24.421875 -25.597656 25.816406 -21.753906 28.609375 -18.890625 C 31.398438 -16.023438 35.039062 -14.59375 39.53125 -14.59375 C 43.945312 -14.59375 47.484375 -16.003906 50.140625 -18.828125 C 52.796875 -21.660156 54.125 -25.523438 54.125 -30.421875 L 54.125 -72.4375 Z M 72.4375 -72.4375 "/></g></g></g><g fill="#ffffff" fill-opacity="1"><g transform="translate(648.142807, 173.449355)"><g><path d="M 7.25 -72.4375 L 41.5 -72.4375 C 49.632812 -72.4375 56.097656 -70.796875 60.890625 -67.515625 C 65.691406 -64.242188 68.09375 -59.847656 68.09375 -54.328125 C 68.09375 -50.535156 66.988281 -47.207031 64.78125 -44.34375 C 62.570312 -41.476562 59.535156 -39.492188 55.671875 -38.390625 C 60.222656 -37.492188 63.84375 -35.390625 66.53125 -32.078125 C 69.226562 -28.765625 70.578125 -24.765625 70.578125 -20.078125 C 70.578125 -13.929688 68.078125 -9.046875 63.078125 -5.421875 C 58.078125 -1.804688 51.296875 0 42.734375 0 L 7.25 0 Z M 25.5625 -58.359375 L 25.5625 -43.46875 L 40.46875 -43.46875 C 43.15625 -43.46875 45.289062 -44.140625 46.875 -45.484375 C 48.46875 -46.828125 49.265625 -48.671875 49.265625 -51.015625 C 49.265625 -53.296875 48.46875 -55.085938 46.875 -56.390625 C 45.289062 -57.703125 43.15625 -58.359375 40.46875 -58.359375 Z M 25.5625 -30.21875 L 25.5625 -14.171875 L 40.46875 -14.171875 C 43.914062 -14.171875 46.617188 -14.894531 48.578125 -16.34375 C 50.546875 -17.800781 51.53125 -19.804688 51.53125 -22.359375 C 51.53125 -24.765625 50.546875 -26.675781 48.578125 -28.09375 C 46.617188 -29.507812 43.914062 -30.21875 40.46875 -30.21875 Z M 25.5625 -30.21875 "/></g></g></g><g fill="#ffffff" fill-opacity="1"><g transform="translate(56.945197, 214.636597)"><g><path d="M 25.203125 0 L 20.484375 0 L 20.453125 -13.671875 L 15.40625 -2.109375 L 11.921875 -2.109375 L 6.875 -13.671875 L 6.875 0 L 2.109375 0 L 2.109375 -21.046875 L 7.953125 -21.046875 L 13.671875 -8.53125 L 19.375 -21.046875 L 25.203125 -21.046875 Z M 25.203125 0 "/></g></g></g><g fill="#ffffff" fill-opacity="1"><g transform="translate(89.024238, 214.636597)"><g><path d="M 21.015625 -21.015625 L 21.015625 -8.828125 C 21.015625 -6.046875 20.15625 -3.835938 18.4375 -2.203125 C 16.71875 -0.578125 14.382812 0.234375 11.4375 0.234375 C 8.476562 0.234375 6.117188 -0.578125 4.359375 -2.203125 C 2.609375 -3.835938 1.734375 -6.046875 1.734375 -8.828125 L 1.734375 -21.015625 L 7.09375 -21.015625 L 7.09375 -8.828125 C 7.09375 -7.429688 7.492188 -6.316406 8.296875 -5.484375 C 9.109375 -4.648438 10.164062 -4.234375 11.46875 -4.234375 C 12.75 -4.234375 13.773438 -4.644531 14.546875 -5.46875 C 15.316406 -6.289062 15.703125 -7.410156 15.703125 -8.828125 L 15.703125 -21.015625 Z M 21.015625 -21.015625 "/></g></g></g><g fill="#ffffff" fill-opacity="1"><g transform="translate(116.537933, 214.636597)"><g><path d="M 13.671875 0 L 8.140625 0 L -0.03125 -21.015625 L 5.671875 -21.015625 L 11.046875 -5.5625 L 16.421875 -21.015625 L 21.921875 -21.015625 Z M 13.671875 0 "/></g></g></g><g fill="#ffffff" fill-opacity="1"><g transform="translate(143.180606, 214.636597)"><g><path d="M 7.453125 0 L 2.109375 0 L 2.109375 -21.015625 L 7.453125 -21.015625 Z M 7.453125 0 "/></g></g></g><g fill="#ffffff" fill-opacity="1"><g transform="translate(157.478814, 214.636597)"><g/></g></g><g fill="#ffffff" fill-opacity="1"><g transform="translate(169.193992, 214.636597)"><g><path d="M 21.5 0 L 16.78125 0 L 7.125 -12.9375 L 7.125 0 L 2.109375 0 L 2.109375 -21.015625 L 6.8125 -21.015625 L 16.515625 -8.046875 L 16.515625 -21.015625 L 21.5 -21.015625 Z M 21.5 0 "/></g></g></g><g fill="#ffffff" fill-opacity="1"><g transform="translate(197.548674, 214.636597)"><g><path d="M 16.0625 -3.875 L 6.875 -3.875 L 5.34375 0 L -0.15625 0 L 8.921875 -21.015625 L 14.421875 -21.015625 L 23.28125 0 L 17.5625 0 Z M 14.5 -7.921875 L 11.5 -15.703125 L 8.4375 -7.921875 Z M 14.5 -7.921875 "/></g></g></g><g fill="#ffffff" fill-opacity="1"><g transform="translate(225.422795, 214.636597)"><g/></g></g><g fill="#ffffff" fill-opacity="1"><g transform="translate(237.137973, 214.636597)"><g><path d="M 10.1875 -21.265625 C 13.320312 -21.265625 16.082031 -20.484375 18.46875 -18.921875 L 16.453125 -14.75 C 15.359375 -15.382812 14.175781 -15.90625 12.90625 -16.3125 C 11.644531 -16.726562 10.585938 -16.9375 9.734375 -16.9375 C 8.191406 -16.9375 7.421875 -16.425781 7.421875 -15.40625 C 7.421875 -14.75 7.800781 -14.21875 8.5625 -13.8125 C 9.320312 -13.414062 10.242188 -13.070312 11.328125 -12.78125 C 12.421875 -12.488281 13.515625 -12.132812 14.609375 -11.71875 C 15.703125 -11.3125 16.628906 -10.644531 17.390625 -9.71875 C 18.148438 -8.800781 18.53125 -7.644531 18.53125 -6.25 C 18.53125 -4.226562 17.738281 -2.648438 16.15625 -1.515625 C 14.570312 -0.378906 12.5625 0.1875 10.125 0.1875 C 8.375 0.1875 6.648438 -0.113281 4.953125 -0.71875 C 3.253906 -1.320312 1.773438 -2.144531 0.515625 -3.1875 L 2.578125 -7.296875 C 3.640625 -6.378906 4.890625 -5.625 6.328125 -5.03125 C 7.773438 -4.4375 9.0625 -4.140625 10.1875 -4.140625 C 11.039062 -4.140625 11.707031 -4.296875 12.1875 -4.609375 C 12.664062 -4.921875 12.90625 -5.375 12.90625 -5.96875 C 12.90625 -6.550781 12.628906 -7.035156 12.078125 -7.421875 C 11.535156 -7.816406 10.851562 -8.109375 10.03125 -8.296875 C 9.207031 -8.492188 8.316406 -8.75 7.359375 -9.0625 C 6.398438 -9.382812 5.507812 -9.734375 4.6875 -10.109375 C 3.863281 -10.492188 3.175781 -11.101562 2.625 -11.9375 C 2.070312 -12.769531 1.796875 -13.765625 1.796875 -14.921875 C 1.796875 -16.847656 2.5625 -18.382812 4.09375 -19.53125 C 5.625 -20.6875 7.65625 -21.265625 10.1875 -21.265625 Z M 10.1875 -21.265625 "/></g></g></g><g fill="#ffffff" fill-opacity="1"><g transform="translate(261.227648, 214.636597)"><g><path d="M 7.453125 0 L 2.109375 0 L 2.109375 -21.015625 L 7.453125 -21.015625 Z M 7.453125 0 "/></g></g></g><g fill="#ffffff" fill-opacity="1"><g transform="translate(275.525849, 214.636597)"><g><path d="M 19.21875 -17.59375 L 7.984375 -4.234375 L 19.40625 -4.234375 L 19.40625 0 L 0.84375 0 L 0.84375 -3.421875 L 12.109375 -16.78125 L 1.234375 -16.78125 L 1.234375 -21.015625 L 19.21875 -21.015625 Z M 19.21875 -17.59375 "/></g></g></g><g fill="#ffffff" fill-opacity="1"><g transform="translate(300.546615, 214.636597)"><g><path d="M 12.078125 -21.203125 C 15.335938 -21.203125 18.046875 -20.1875 20.203125 -18.15625 C 22.367188 -16.125 23.453125 -13.585938 23.453125 -10.546875 C 23.453125 -7.484375 22.363281 -4.921875 20.1875 -2.859375 C 18.019531 -0.796875 15.3125 0.234375 12.0625 0.234375 C 8.820312 0.234375 6.117188 -0.789062 3.953125 -2.84375 C 1.796875 -4.894531 0.71875 -7.460938 0.71875 -10.546875 C 0.71875 -13.609375 1.796875 -16.148438 3.953125 -18.171875 C 6.117188 -20.191406 8.828125 -21.203125 12.078125 -21.203125 Z M 12.125 -16.734375 C 10.488281 -16.734375 9.085938 -16.132812 7.921875 -14.9375 C 6.765625 -13.75 6.1875 -12.273438 6.1875 -10.515625 C 6.1875 -8.753906 6.769531 -7.265625 7.9375 -6.046875 C 9.113281 -4.835938 10.507812 -4.234375 12.125 -4.234375 C 13.75 -4.234375 15.125 -4.835938 16.25 -6.046875 C 17.382812 -7.265625 17.953125 -8.753906 17.953125 -10.515625 C 17.953125 -12.273438 17.382812 -13.75 16.25 -14.9375 C 15.125 -16.132812 13.75 -16.734375 12.125 -16.734375 Z M 12.125 -16.734375 "/></g></g></g><g fill="#ffffff" fill-opacity="1"><g transform="translate(329.471967, 214.636597)"><g><path d="M 21.5 0 L 16.78125 0 L 7.125 -12.9375 L 7.125 0 L 2.109375 0 L 2.109375 -21.015625 L 6.8125 -21.015625 L 16.515625 -8.046875 L 16.515625 -21.015625 L 21.5 -21.015625 Z M 21.5 0 "/></g></g></g><g fill="#ffffff" fill-opacity="1"><g transform="translate(357.826649, 214.636597)"><g><path d="M 7.453125 0 L 2.109375 0 L 2.109375 -21.015625 L 7.453125 -21.015625 Z M 7.453125 0 "/></g></g></g><g fill="#ffffff" fill-opacity="1"><g transform="translate(372.12485, 214.636597)"><g/></g></g><g fill="#ffffff" fill-opacity="1"><g transform="translate(383.840029, 214.636597)"><g><path d="M 19.21875 -17.59375 L 7.984375 -4.234375 L 19.40625 -4.234375 L 19.40625 0 L 0.84375 0 L 0.84375 -3.421875 L 12.109375 -16.78125 L 1.234375 -16.78125 L 1.234375 -21.015625 L 19.21875 -21.015625 Z M 19.21875 -17.59375 "/></g></g></g><g fill="#ffffff" fill-opacity="1"><g transform="translate(408.860795, 214.636597)"><g><path d="M 16.0625 -3.875 L 6.875 -3.875 L 5.34375 0 L -0.15625 0 L 8.921875 -21.015625 L 14.421875 -21.015625 L 23.28125 0 L 17.5625 0 Z M 14.5 -7.921875 L 11.5 -15.703125 L 8.4375 -7.921875 Z M 14.5 -7.921875 "/></g></g></g><g fill="#ffffff" fill-opacity="1"><g transform="translate(436.734916, 214.636597)"><g/></g></g><g fill="#ffffff" fill-opacity="1"><g transform="translate(448.450117, 214.636597)"><g><path d="M 15.796875 0 L 10.234375 -8.265625 L 7.453125 -5.171875 L 7.453125 0 L 2.109375 0 L 2.109375 -21.015625 L 7.453125 -21.015625 L 7.453125 -11.921875 L 15.5 -21.015625 L 21.6875 -21.015625 L 13.875 -12.3125 L 22.1875 0 Z M 15.796875 0 "/></g></g></g><g fill="#ffffff" fill-opacity="1"><g transform="translate(475.633404, 214.636597)"><g><path d="M 21.015625 -21.015625 L 21.015625 -8.828125 C 21.015625 -6.046875 20.15625 -3.835938 18.4375 -2.203125 C 16.71875 -0.578125 14.382812 0.234375 11.4375 0.234375 C 8.476562 0.234375 6.117188 -0.578125 4.359375 -2.203125 C 2.609375 -3.835938 1.734375 -6.046875 1.734375 -8.828125 L 1.734375 -21.015625 L 7.09375 -21.015625 L 7.09375 -8.828125 C 7.09375 -7.429688 7.492188 -6.316406 8.296875 -5.484375 C 9.109375 -4.648438 10.164062 -4.234375 11.46875 -4.234375 C 12.75 -4.234375 13.773438 -4.644531 14.546875 -5.46875 C 15.316406 -6.289062 15.703125 -7.410156 15.703125 -8.828125 L 15.703125 -21.015625 Z M 21.015625 -21.015625 "/></g></g></g><g fill="#ffffff" fill-opacity="1"><g transform="translate(503.147105, 214.636597)"><g><path d="M 18.171875 -16.734375 L 11.828125 -16.734375 L 11.828125 0 L 6.484375 0 L 6.484375 -16.734375 L 0.203125 -16.734375 L 0.203125 -21.046875 L 18.171875 -21.046875 Z M 18.171875 -16.734375 "/></g></g></g><g fill="#ffffff" fill-opacity="1"><g transform="translate(526.24563, 214.636597)"><g><path d="M 16.0625 -3.875 L 6.875 -3.875 L 5.34375 0 L -0.15625 0 L 8.921875 -21.015625 L 14.421875 -21.015625 L 23.28125 0 L 17.5625 0 Z M 14.5 -7.921875 L 11.5 -15.703125 L 8.4375 -7.921875 Z M 14.5 -7.921875 "/></g></g></g><g fill="#ffffff" fill-opacity="1"><g transform="translate(554.119728, 214.636597)"><g><path d="M 17.6875 -16.8125 L 7.453125 -16.8125 L 7.453125 -11.953125 L 16.875 -11.953125 L 16.875 -7.75 L 7.453125 -7.75 L 7.453125 0 L 2.109375 0 L 2.109375 -21.015625 L 17.6875 -21.015625 Z M 17.6875 -16.8125 "/></g></g></g><g fill="#ffffff" fill-opacity="1"><g transform="translate(577.008001, 214.636597)"><g><path d="M 10.1875 -21.265625 C 13.320312 -21.265625 16.082031 -20.484375 18.46875 -18.921875 L 16.453125 -14.75 C 15.359375 -15.382812 14.175781 -15.90625 12.90625 -16.3125 C 11.644531 -16.726562 10.585938 -16.9375 9.734375 -16.9375 C 8.191406 -16.9375 7.421875 -16.425781 7.421875 -15.40625 C 7.421875 -14.75 7.800781 -14.21875 8.5625 -13.8125 C 9.320312 -13.414062 10.242188 -13.070312 11.328125 -12.78125 C 12.421875 -12.488281 13.515625 -12.132812 14.609375 -11.71875 C 15.703125 -11.3125 16.628906 -10.644531 17.390625 -9.71875 C 18.148438 -8.800781 18.53125 -7.644531 18.53125 -6.25 C 18.53125 -4.226562 17.738281 -2.648438 16.15625 -1.515625 C 14.570312 -0.378906 12.5625 0.1875 10.125 0.1875 C 8.375 0.1875 6.648438 -0.113281 4.953125 -0.71875 C 3.253906 -1.320312 1.773438 -2.144531 0.515625 -3.1875 L 2.578125 -7.296875 C 3.640625 -6.378906 4.890625 -5.625 6.328125 -5.03125 C 7.773438 -4.4375 9.0625 -4.140625 10.1875 -4.140625 C 11.039062 -4.140625 11.707031 -4.296875 12.1875 -4.609375 C 12.664062 -4.921875 12.90625 -5.375 12.90625 -5.96875 C 12.90625 -6.550781 12.628906 -7.035156 12.078125 -7.421875 C 11.535156 -7.816406 10.851562 -8.109375 10.03125 -8.296875 C 9.207031 -8.492188 8.316406 -8.75 7.359375 -9.0625 C 6.398438 -9.382812 5.507812 -9.734375 4.6875 -10.109375 C 3.863281 -10.492188 3.175781 -11.101562 2.625 -11.9375 C 2.070312 -12.769531 1.796875 -13.765625 1.796875 -14.921875 C 1.796875 -16.847656 2.5625 -18.382812 4.09375 -19.53125 C 5.625 -20.6875 7.65625 -21.265625 10.1875 -21.265625 Z M 10.1875 -21.265625 "/></g></g></g><g fill="#ffffff" fill-opacity="1"><g transform="translate(601.097676, 214.636597)"><g><path d="M 7.453125 0 L 2.109375 0 L 2.109375 -21.015625 L 7.453125 -21.015625 Z M 7.453125 0 "/></g></g></g><g fill="#ffffff" fill-opacity="1"><g transform="translate(615.395877, 214.636597)"><g><path d="M 14.78125 0 L 11.65625 -5.921875 L 7.453125 -5.921875 L 7.453125 0 L 2.109375 0 L 2.109375 -21.015625 L 11.5 -21.015625 C 14.28125 -21.015625 16.429688 -20.378906 17.953125 -19.109375 C 19.472656 -17.835938 20.234375 -16.03125 20.234375 -13.6875 C 20.234375 -10.445312 18.960938 -8.195312 16.421875 -6.9375 L 20.84375 0 Z M 7.453125 -10.125 L 11.5 -10.125 C 12.664062 -10.125 13.566406 -10.410156 14.203125 -10.984375 C 14.847656 -11.566406 15.171875 -12.410156 15.171875 -13.515625 C 15.171875 -14.597656 14.847656 -15.414062 14.203125 -15.96875 C 13.566406 -16.53125 12.664062 -16.8125 11.5 -16.8125 L 7.453125 -16.8125 Z M 7.453125 -10.125 "/></g></g></g><g fill="#ffffff" fill-opacity="1"><g transform="translate(641.888353, 214.636597)"><g><path d="M 7.453125 0 L 2.109375 0 L 2.109375 -21.015625 L 7.453125 -21.015625 Z M 7.453125 0 "/></g></g></g><g fill="#ffffff" fill-opacity="1"><g transform="translate(656.186554, 214.636597)"><g><path d="M 25.734375 0 L 20.234375 0 L 16.34375 -14.53125 L 12.375 0 L 6.84375 0 L -0.03125 -21.015625 L 5.671875 -21.015625 L 9.796875 -5.5625 L 13.8125 -21.015625 L 19.046875 -21.015625 L 23.15625 -5.5625 L 27.203125 -21.015625 L 32.671875 -21.015625 Z M 25.734375 0 "/></g></g></g><g fill="#ffffff" fill-opacity="1"><g transform="translate(693.401594, 214.636597)"><g><path d="M 16.0625 -3.875 L 6.875 -3.875 L 5.34375 0 L -0.15625 0 L 8.921875 -21.015625 L 14.421875 -21.015625 L 23.28125 0 L 17.5625 0 Z M 14.5 -7.921875 L 11.5 -15.703125 L 8.4375 -7.921875 Z M 14.5 -7.921875 "/></g></g></g></svg>