<svg xmlns="http://www.w3.org/2000/svg" xmlns:xlink="http://www.w3.org/1999/xlink" width="996" zoomAndPan="magnify" viewBox="0 0 747 231" height="308" preserveAspectRatio="xMidYMid meet" version="1.0"><defs><g/><clipPath id="fa66977015"><path d="M 262.765625 0 L 398.515625 0 L 398.515625 86.25 L 262.765625 86.25 Z M 262.765625 0 " clip-rule="nonzero"/></clipPath></defs><g clip-path="url(#fa66977015)"><path fill="#d9d9d9" d="M 291.996094 47.054688 L 299.503906 51.386719 C 300.148438 51.757812 300.371094 52.589844 299.996094 53.234375 L 295.660156 60.742188 C 295.292969 61.386719 294.460938 61.609375 293.816406 61.238281 L 286.308594 56.902344 C 285.664062 56.527344 285.441406 55.699219 285.8125 55.054688 L 290.148438 47.542969 C 290.519531 46.90625 291.351562 46.683594 291.996094 47.054688 M 300.855469 31.707031 L 308.363281 36.042969 C 309.007812 36.414062 309.230469 37.242188 308.859375 37.886719 L 304.523438 45.394531 C 304.152344 46.039062 303.320312 46.265625 302.675781 45.890625 L 295.167969 41.554688 C 294.523438 41.183594 294.304688 40.351562 294.671875 39.707031 L 299.007812 32.199219 C 299.378906 31.558594 300.210938 31.335938 300.855469 31.707031 Z M 309.714844 16.359375 L 317.222656 20.695312 C 317.867188 21.066406 318.089844 21.898438 317.714844 22.542969 L 313.378906 30.050781 C 313.007812 30.695312 312.175781 30.914062 311.53125 30.542969 L 304.027344 26.210938 C 303.382812 25.839844 303.164062 25.007812 303.535156 24.363281 L 307.871094 16.855469 C 308.238281 16.210938 309.070312 15.988281 309.714844 16.359375 Z M 369.472656 71.324219 L 376.980469 75.660156 C 377.625 76.03125 377.84375 76.859375 377.476562 77.507812 L 373.140625 85.015625 C 372.769531 85.660156 371.9375 85.882812 371.292969 85.507812 L 363.785156 81.171875 C 363.140625 80.800781 362.917969 79.96875 363.292969 79.324219 L 367.628906 71.816406 C 367.996094 71.171875 368.828125 70.949219 369.472656 71.324219 Z M 378.332031 55.976562 L 385.839844 60.3125 C 386.484375 60.683594 386.703125 61.515625 386.335938 62.160156 L 382 69.667969 C 381.628906 70.316406 380.800781 70.539062 380.15625 70.164062 L 372.648438 65.828125 C 372.003906 65.457031 371.78125 64.625 372.152344 63.980469 L 376.488281 56.472656 C 376.859375 55.828125 377.6875 55.601562 378.332031 55.976562 Z M 381.371094 39.617188 L 385.003906 41.714844 L 381.011719 48.636719 C 380.640625 49.28125 380.859375 50.109375 381.503906 50.480469 L 389.011719 54.816406 C 389.65625 55.1875 390.484375 54.96875 390.859375 54.324219 L 394.855469 47.402344 L 398.398438 49.449219 L 377.007812 86.492188 L 354.3125 86.492188 Z M 287.140625 75.5 C 286.769531 76.144531 285.941406 76.367188 285.292969 75.992188 L 277.785156 71.660156 C 277.140625 71.289062 276.921875 70.457031 277.292969 69.8125 L 281.289062 62.890625 C 281.660156 62.25 282.488281 62.027344 283.132812 62.398438 L 290.640625 66.734375 C 291.289062 67.101562 291.511719 67.933594 291.136719 68.578125 Z M 285.519531 86.488281 L 290.683594 77.546875 L 294.675781 70.628906 L 329.777344 9.832031 L 326.238281 7.789062 L 322.242188 14.703125 C 321.871094 15.347656 321.042969 15.570312 320.394531 15.195312 L 312.886719 10.859375 C 312.246094 10.492188 312.019531 9.660156 312.394531 9.015625 L 316.390625 2.101562 L 312.757812 0 L 277.65625 60.796875 L 273.660156 67.714844 L 262.824219 86.488281 L 268.421875 86.488281 C 268.199219 86.089844 268.1875 85.585938 268.433594 85.160156 L 272.769531 77.652344 C 273.136719 77.007812 273.96875 76.789062 274.613281 77.160156 L 282.121094 81.496094 C 282.765625 81.867188 282.988281 82.695312 282.617188 83.339844 L 280.796875 86.488281 Z M 296.476562 86.488281 L 298.902344 82.289062 L 302.898438 75.371094 L 313.164062 57.589844 C 314.574219 55.148438 317.722656 54.304688 320.167969 55.714844 L 346.441406 70.882812 C 348.882812 72.292969 349.730469 75.445312 348.316406 77.886719 L 343.351562 86.488281 Z M 373.152344 34.871094 L 358.894531 59.570312 C 357.484375 62.011719 354.332031 62.859375 351.890625 61.449219 L 325.613281 46.277344 C 323.175781 44.867188 322.328125 41.71875 323.738281 39.273438 L 337.996094 14.574219 Z M 373.152344 34.871094 " fill-opacity="1" fill-rule="evenodd"/></g><g fill="#ffffff" fill-opacity="1"><g transform="translate(52.628012, 173.16604)"><g><path d="M 60.953125 -57.953125 L 25.671875 -57.953125 L 25.671875 -41.1875 L 58.15625 -41.1875 L 58.15625 -26.703125 L 25.671875 -26.703125 L 25.671875 0 L 7.25 0 L 7.25 -72.4375 L 60.953125 -72.4375 Z M 60.953125 -57.953125 "/></g></g></g><g fill="#ffffff" fill-opacity="1"><g transform="translate(115.131943, 173.16604)"><g><path d="M 25.671875 0 L 7.25 0 L 7.25 -72.4375 L 25.671875 -72.4375 Z M 25.671875 0 "/></g></g></g><g fill="#ffffff" fill-opacity="1"><g transform="translate(148.039641, 173.16604)"><g><path d="M 25.671875 -15.421875 L 56.40625 -15.421875 L 56.40625 0 L 7.25 0 L 7.25 -72.4375 L 25.671875 -72.4375 Z M 25.671875 -15.421875 "/></g></g></g><g fill="#ffffff" fill-opacity="1"><g transform="translate(205.990316, 173.16604)"><g><path d="M 55.359375 -13.34375 L 23.703125 -13.34375 L 18.421875 0 L -0.515625 0 L 30.734375 -72.4375 L 49.671875 -72.4375 L 80.203125 0 L 60.53125 0 Z M 49.984375 -27.3125 L 39.640625 -54.125 L 29.078125 -27.3125 Z M 49.984375 -27.3125 "/></g></g></g><g fill="#ffffff" fill-opacity="1"><g transform="translate(285.672477, 173.16604)"><g><path d="M 86.828125 0 L 70.578125 0 L 70.46875 -47.078125 L 53.09375 -7.25 L 41.078125 -7.25 L 23.703125 -47.078125 L 23.703125 0 L 7.25 0 L 7.25 -72.546875 L 27.421875 -72.546875 L 47.078125 -29.390625 L 66.75 -72.546875 L 86.828125 -72.546875 Z M 86.828125 0 "/></g></g></g><g fill="#ffffff" fill-opacity="1"><g transform="translate(379.8423, 173.16604)"><g><path d="M 72.4375 -72.4375 L 72.4375 -30.421875 C 72.4375 -20.835938 69.46875 -13.234375 63.53125 -7.609375 C 57.601562 -1.984375 49.566406 0.828125 39.421875 0.828125 C 29.210938 0.828125 21.085938 -1.984375 15.046875 -7.609375 C 9.015625 -13.234375 6 -20.835938 6 -30.421875 L 6 -72.4375 L 24.421875 -72.4375 L 24.421875 -30.421875 C 24.421875 -25.597656 25.816406 -21.753906 28.609375 -18.890625 C 31.398438 -16.023438 35.039062 -14.59375 39.53125 -14.59375 C 43.945312 -14.59375 47.484375 -16.003906 50.140625 -18.828125 C 52.796875 -21.660156 54.125 -25.523438 54.125 -30.421875 L 54.125 -72.4375 Z M 72.4375 -72.4375 "/></g></g></g><g fill="#ffffff" fill-opacity="1"><g transform="translate(488.374966, 173.449368)"><g><path d="M 74.09375 0 L 55.671875 0 L 55.671875 -28.140625 L 25.671875 -28.140625 L 25.671875 0 L 7.25 0 L 7.25 -72.4375 L 25.671875 -72.4375 L 25.671875 -42.640625 L 55.671875 -42.640625 L 55.671875 -72.4375 L 74.09375 -72.4375 Z M 74.09375 0 "/></g></g></g><g fill="#ffffff" fill-opacity="1"><g transform="translate(569.707563, 173.449368)"><g><path d="M 72.4375 -72.4375 L 72.4375 -30.421875 C 72.4375 -20.835938 69.46875 -13.234375 63.53125 -7.609375 C 57.601562 -1.984375 49.566406 0.828125 39.421875 0.828125 C 29.210938 0.828125 21.085938 -1.984375 15.046875 -7.609375 C 9.015625 -13.234375 6 -20.835938 6 -30.421875 L 6 -72.4375 L 24.421875 -72.4375 L 24.421875 -30.421875 C 24.421875 -25.597656 25.816406 -21.753906 28.609375 -18.890625 C 31.398438 -16.023438 35.039062 -14.59375 39.53125 -14.59375 C 43.945312 -14.59375 47.484375 -16.003906 50.140625 -18.828125 C 52.796875 -21.660156 54.125 -25.523438 54.125 -30.421875 L 54.125 -72.4375 Z M 72.4375 -72.4375 "/></g></g></g><g fill="#ffffff" fill-opacity="1"><g transform="translate(648.142813, 173.449368)"><g><path d="M 7.25 -72.4375 L 41.5 -72.4375 C 49.632812 -72.4375 56.097656 -70.796875 60.890625 -67.515625 C 65.691406 -64.242188 68.09375 -59.847656 68.09375 -54.328125 C 68.09375 -50.535156 66.988281 -47.207031 64.78125 -44.34375 C 62.570312 -41.476562 59.535156 -39.492188 55.671875 -38.390625 C 60.222656 -37.492188 63.84375 -35.390625 66.53125 -32.078125 C 69.226562 -28.765625 70.578125 -24.765625 70.578125 -20.078125 C 70.578125 -13.929688 68.078125 -9.046875 63.078125 -5.421875 C 58.078125 -1.804688 51.296875 0 42.734375 0 L 7.25 0 Z M 25.5625 -58.359375 L 25.5625 -43.46875 L 40.46875 -43.46875 C 43.15625 -43.46875 45.289062 -44.140625 46.875 -45.484375 C 48.46875 -46.828125 49.265625 -48.671875 49.265625 -51.015625 C 49.265625 -53.296875 48.46875 -55.085938 46.875 -56.390625 C 45.289062 -57.703125 43.15625 -58.359375 40.46875 -58.359375 Z M 25.5625 -30.21875 L 25.5625 -14.171875 L 40.46875 -14.171875 C 43.914062 -14.171875 46.617188 -14.894531 48.578125 -16.34375 C 50.546875 -17.800781 51.53125 -19.804688 51.53125 -22.359375 C 51.53125 -24.765625 50.546875 -26.675781 48.578125 -28.09375 C 46.617188 -29.507812 43.914062 -30.21875 40.46875 -30.21875 Z M 25.5625 -30.21875 "/></g></g></g><g fill="#ffffff" fill-opacity="1"><g transform="translate(97.639675, 219.131806)"><g><path d="M 21.859375 0 L 17.765625 0 L 17.734375 -11.84375 L 13.359375 -1.828125 L 10.34375 -1.828125 L 5.96875 -11.84375 L 5.96875 0 L 1.828125 0 L 1.828125 -18.265625 L 6.90625 -18.265625 L 11.84375 -7.390625 L 16.796875 -18.265625 L 21.859375 -18.265625 Z M 21.859375 0 "/></g></g></g><g fill="#ffffff" fill-opacity="1"><g transform="translate(125.450259, 219.131806)"><g><path d="M 18.234375 -18.234375 L 18.234375 -7.65625 C 18.234375 -5.238281 17.484375 -3.320312 15.984375 -1.90625 C 14.492188 -0.5 12.472656 0.203125 9.921875 0.203125 C 7.347656 0.203125 5.300781 -0.5 3.78125 -1.90625 C 2.269531 -3.320312 1.515625 -5.238281 1.515625 -7.65625 L 1.515625 -18.234375 L 6.140625 -18.234375 L 6.140625 -7.65625 C 6.140625 -6.4375 6.488281 -5.46875 7.1875 -4.75 C 7.894531 -4.03125 8.816406 -3.671875 9.953125 -3.671875 C 11.054688 -3.671875 11.941406 -4.023438 12.609375 -4.734375 C 13.285156 -5.453125 13.625 -6.425781 13.625 -7.65625 L 13.625 -18.234375 Z M 18.234375 -18.234375 "/></g></g></g><g fill="#ffffff" fill-opacity="1"><g transform="translate(149.302904, 219.131806)"><g><path d="M 11.84375 0 L 7.0625 0 L -0.03125 -18.234375 L 4.921875 -18.234375 L 9.578125 -4.8125 L 14.25 -18.234375 L 19.015625 -18.234375 Z M 11.84375 0 "/></g></g></g><g fill="#ffffff" fill-opacity="1"><g transform="translate(172.400411, 219.131806)"><g><path d="M 6.453125 0 L 1.828125 0 L 1.828125 -18.234375 L 6.453125 -18.234375 Z M 6.453125 0 "/></g></g></g><g fill="#ffffff" fill-opacity="1"><g transform="translate(184.795861, 219.131806)"><g/></g></g><g fill="#ffffff" fill-opacity="1"><g transform="translate(194.951954, 219.131806)"><g><path d="M 18.65625 0 L 14.5625 0 L 6.171875 -11.21875 L 6.171875 0 L 1.828125 0 L 1.828125 -18.234375 L 5.90625 -18.234375 L 14.328125 -6.984375 L 14.328125 -18.234375 L 18.65625 -18.234375 Z M 18.65625 0 "/></g></g></g><g fill="#ffffff" fill-opacity="1"><g transform="translate(219.533691, 219.131806)"><g><path d="M 13.9375 -3.359375 L 5.96875 -3.359375 L 4.640625 0 L -0.125 0 L 7.734375 -18.234375 L 12.5 -18.234375 L 20.1875 0 L 15.234375 0 Z M 12.578125 -6.875 L 9.96875 -13.625 L 7.3125 -6.875 Z M 12.578125 -6.875 "/></g></g></g><g fill="#ffffff" fill-opacity="1"><g transform="translate(243.698805, 219.131806)"><g/></g></g><g fill="#ffffff" fill-opacity="1"><g transform="translate(253.854898, 219.131806)"><g><path d="M 8.828125 -18.4375 C 11.554688 -18.4375 13.953125 -17.757812 16.015625 -16.40625 L 14.28125 -12.796875 C 13.320312 -13.347656 12.296875 -13.800781 11.203125 -14.15625 C 10.109375 -14.507812 9.1875 -14.6875 8.4375 -14.6875 C 7.101562 -14.6875 6.4375 -14.242188 6.4375 -13.359375 C 6.4375 -12.785156 6.765625 -12.320312 7.421875 -11.96875 C 8.078125 -11.625 8.878906 -11.328125 9.828125 -11.078125 C 10.773438 -10.828125 11.722656 -10.523438 12.671875 -10.171875 C 13.617188 -9.816406 14.421875 -9.238281 15.078125 -8.4375 C 15.742188 -7.632812 16.078125 -6.628906 16.078125 -5.421875 C 16.078125 -3.660156 15.390625 -2.289062 14.015625 -1.3125 C 12.640625 -0.332031 10.894531 0.15625 8.78125 0.15625 C 7.269531 0.15625 5.773438 -0.101562 4.296875 -0.625 C 2.816406 -1.144531 1.53125 -1.859375 0.4375 -2.765625 L 2.234375 -6.328125 C 3.160156 -5.523438 4.25 -4.867188 5.5 -4.359375 C 6.75 -3.847656 7.859375 -3.59375 8.828125 -3.59375 C 9.578125 -3.59375 10.160156 -3.726562 10.578125 -4 C 10.992188 -4.269531 11.203125 -4.664062 11.203125 -5.1875 C 11.203125 -5.6875 10.960938 -6.101562 10.484375 -6.4375 C 10.003906 -6.78125 9.40625 -7.035156 8.6875 -7.203125 C 7.976562 -7.367188 7.207031 -7.585938 6.375 -7.859375 C 5.539062 -8.140625 4.769531 -8.441406 4.0625 -8.765625 C 3.351562 -9.097656 2.757812 -9.625 2.28125 -10.34375 C 1.800781 -11.070312 1.5625 -11.941406 1.5625 -12.953125 C 1.5625 -14.617188 2.222656 -15.945312 3.546875 -16.9375 C 4.878906 -17.9375 6.640625 -18.4375 8.828125 -18.4375 Z M 8.828125 -18.4375 "/></g></g></g><g fill="#ffffff" fill-opacity="1"><g transform="translate(274.739083, 219.131806)"><g><path d="M 6.453125 0 L 1.828125 0 L 1.828125 -18.234375 L 6.453125 -18.234375 Z M 6.453125 0 "/></g></g></g><g fill="#ffffff" fill-opacity="1"><g transform="translate(287.134533, 219.131806)"><g><path d="M 16.671875 -15.265625 L 6.921875 -3.671875 L 16.828125 -3.671875 L 16.828125 0 L 0.734375 0 L 0.734375 -2.96875 L 10.5 -14.5625 L 1.0625 -14.5625 L 1.0625 -18.234375 L 16.671875 -18.234375 Z M 16.671875 -15.265625 "/></g></g></g><g fill="#ffffff" fill-opacity="1"><g transform="translate(308.825915, 219.131806)"><g><path d="M 10.46875 -18.390625 C 13.300781 -18.390625 15.65625 -17.507812 17.53125 -15.75 C 19.40625 -13.988281 20.34375 -11.785156 20.34375 -9.140625 C 20.34375 -6.484375 19.398438 -4.257812 17.515625 -2.46875 C 15.628906 -0.6875 13.28125 0.203125 10.46875 0.203125 C 7.65625 0.203125 5.3125 -0.679688 3.4375 -2.453125 C 1.5625 -4.234375 0.625 -6.460938 0.625 -9.140625 C 0.625 -11.796875 1.5625 -14 3.4375 -15.75 C 5.3125 -17.507812 7.65625 -18.390625 10.46875 -18.390625 Z M 10.515625 -14.515625 C 9.097656 -14.515625 7.882812 -13.992188 6.875 -12.953125 C 5.863281 -11.921875 5.359375 -10.640625 5.359375 -9.109375 C 5.359375 -7.585938 5.863281 -6.300781 6.875 -5.25 C 7.894531 -4.195312 9.109375 -3.671875 10.515625 -3.671875 C 11.921875 -3.671875 13.113281 -4.195312 14.09375 -5.25 C 15.082031 -6.300781 15.578125 -7.585938 15.578125 -9.109375 C 15.578125 -10.640625 15.082031 -11.921875 14.09375 -12.953125 C 13.113281 -13.992188 11.921875 -14.515625 10.515625 -14.515625 Z M 10.515625 -14.515625 "/></g></g></g><g fill="#ffffff" fill-opacity="1"><g transform="translate(333.902392, 219.131806)"><g><path d="M 18.65625 0 L 14.5625 0 L 6.171875 -11.21875 L 6.171875 0 L 1.828125 0 L 1.828125 -18.234375 L 5.90625 -18.234375 L 14.328125 -6.984375 L 14.328125 -18.234375 L 18.65625 -18.234375 Z M 18.65625 0 "/></g></g></g><g fill="#ffffff" fill-opacity="1"><g transform="translate(358.484117, 219.131806)"><g><path d="M 6.453125 0 L 1.828125 0 L 1.828125 -18.234375 L 6.453125 -18.234375 Z M 6.453125 0 "/></g></g></g><g fill="#ffffff" fill-opacity="1"><g transform="translate(370.879555, 219.131806)"><g/></g></g><g fill="#ffffff" fill-opacity="1"><g transform="translate(381.035637, 219.131806)"><g><path d="M 16.671875 -15.265625 L 6.921875 -3.671875 L 16.828125 -3.671875 L 16.828125 0 L 0.734375 0 L 0.734375 -2.96875 L 10.5 -14.5625 L 1.0625 -14.5625 L 1.0625 -18.234375 L 16.671875 -18.234375 Z M 16.671875 -15.265625 "/></g></g></g><g fill="#ffffff" fill-opacity="1"><g transform="translate(402.727019, 219.131806)"><g><path d="M 13.9375 -3.359375 L 5.96875 -3.359375 L 4.640625 0 L -0.125 0 L 7.734375 -18.234375 L 12.5 -18.234375 L 20.1875 0 L 15.234375 0 Z M 12.578125 -6.875 L 9.96875 -13.625 L 7.3125 -6.875 Z M 12.578125 -6.875 "/></g></g></g><g fill="#ffffff" fill-opacity="1"><g transform="translate(426.892134, 219.131806)"><g/></g></g><g fill="#ffffff" fill-opacity="1"><g transform="translate(437.048216, 219.131806)"><g><path d="M 13.703125 0 L 8.875 -7.15625 L 6.453125 -4.484375 L 6.453125 0 L 1.828125 0 L 1.828125 -18.234375 L 6.453125 -18.234375 L 6.453125 -10.34375 L 13.4375 -18.234375 L 18.8125 -18.234375 L 12.03125 -10.671875 L 19.25 0 Z M 13.703125 0 "/></g></g></g><g fill="#ffffff" fill-opacity="1"><g transform="translate(460.614415, 219.131806)"><g><path d="M 18.234375 -18.234375 L 18.234375 -7.65625 C 18.234375 -5.238281 17.484375 -3.320312 15.984375 -1.90625 C 14.492188 -0.5 12.472656 0.203125 9.921875 0.203125 C 7.347656 0.203125 5.300781 -0.5 3.78125 -1.90625 C 2.269531 -3.320312 1.515625 -5.238281 1.515625 -7.65625 L 1.515625 -18.234375 L 6.140625 -18.234375 L 6.140625 -7.65625 C 6.140625 -6.4375 6.488281 -5.46875 7.1875 -4.75 C 7.894531 -4.03125 8.816406 -3.671875 9.953125 -3.671875 C 11.054688 -3.671875 11.941406 -4.023438 12.609375 -4.734375 C 13.285156 -5.453125 13.625 -6.425781 13.625 -7.65625 L 13.625 -18.234375 Z M 18.234375 -18.234375 "/></g></g></g><g fill="#ffffff" fill-opacity="1"><g transform="translate(484.467036, 219.131806)"><g><path d="M 15.765625 -14.515625 L 10.265625 -14.515625 L 10.265625 0 L 5.625 0 L 5.625 -14.515625 L 0.1875 -14.515625 L 0.1875 -18.265625 L 15.765625 -18.265625 Z M 15.765625 -14.515625 "/></g></g></g><g fill="#ffffff" fill-opacity="1"><g transform="translate(504.491907, 219.131806)"><g><path d="M 13.9375 -3.359375 L 5.96875 -3.359375 L 4.640625 0 L -0.125 0 L 7.734375 -18.234375 L 12.5 -18.234375 L 20.1875 0 L 15.234375 0 Z M 12.578125 -6.875 L 9.96875 -13.625 L 7.3125 -6.875 Z M 12.578125 -6.875 "/></g></g></g><g fill="#ffffff" fill-opacity="1"><g transform="translate(528.657022, 219.131806)"><g><path d="M 15.34375 -14.59375 L 6.453125 -14.59375 L 6.453125 -10.359375 L 14.640625 -10.359375 L 14.640625 -6.71875 L 6.453125 -6.71875 L 6.453125 0 L 1.828125 0 L 1.828125 -18.234375 L 15.34375 -18.234375 Z M 15.34375 -14.59375 "/></g></g></g><g fill="#ffffff" fill-opacity="1"><g transform="translate(548.499657, 219.131806)"><g><path d="M 8.828125 -18.4375 C 11.554688 -18.4375 13.953125 -17.757812 16.015625 -16.40625 L 14.28125 -12.796875 C 13.320312 -13.347656 12.296875 -13.800781 11.203125 -14.15625 C 10.109375 -14.507812 9.1875 -14.6875 8.4375 -14.6875 C 7.101562 -14.6875 6.4375 -14.242188 6.4375 -13.359375 C 6.4375 -12.785156 6.765625 -12.320312 7.421875 -11.96875 C 8.078125 -11.625 8.878906 -11.328125 9.828125 -11.078125 C 10.773438 -10.828125 11.722656 -10.523438 12.671875 -10.171875 C 13.617188 -9.816406 14.421875 -9.238281 15.078125 -8.4375 C 15.742188 -7.632812 16.078125 -6.628906 16.078125 -5.421875 C 16.078125 -3.660156 15.390625 -2.289062 14.015625 -1.3125 C 12.640625 -0.332031 10.894531 0.15625 8.78125 0.15625 C 7.269531 0.15625 5.773438 -0.101562 4.296875 -0.625 C 2.816406 -1.144531 1.53125 -1.859375 0.4375 -2.765625 L 2.234375 -6.328125 C 3.160156 -5.523438 4.25 -4.867188 5.5 -4.359375 C 6.75 -3.847656 7.859375 -3.59375 8.828125 -3.59375 C 9.578125 -3.59375 10.160156 -3.726562 10.578125 -4 C 10.992188 -4.269531 11.203125 -4.664062 11.203125 -5.1875 C 11.203125 -5.6875 10.960938 -6.101562 10.484375 -6.4375 C 10.003906 -6.78125 9.40625 -7.035156 8.6875 -7.203125 C 7.976562 -7.367188 7.207031 -7.585938 6.375 -7.859375 C 5.539062 -8.140625 4.769531 -8.441406 4.0625 -8.765625 C 3.351562 -9.097656 2.757812 -9.625 2.28125 -10.34375 C 1.800781 -11.070312 1.5625 -11.941406 1.5625 -12.953125 C 1.5625 -14.617188 2.222656 -15.945312 3.546875 -16.9375 C 4.878906 -17.9375 6.640625 -18.4375 8.828125 -18.4375 Z M 8.828125 -18.4375 "/></g></g></g><g fill="#ffffff" fill-opacity="1"><g transform="translate(569.383842, 219.131806)"><g><path d="M 6.453125 0 L 1.828125 0 L 1.828125 -18.234375 L 6.453125 -18.234375 Z M 6.453125 0 "/></g></g></g><g fill="#ffffff" fill-opacity="1"><g transform="translate(581.779303, 219.131806)"><g><path d="M 12.8125 0 L 10.109375 -5.125 L 6.453125 -5.125 L 6.453125 0 L 1.828125 0 L 1.828125 -18.234375 L 9.96875 -18.234375 C 12.382812 -18.234375 14.253906 -17.679688 15.578125 -16.578125 C 16.898438 -15.472656 17.5625 -13.90625 17.5625 -11.875 C 17.5625 -9.0625 16.457031 -7.109375 14.25 -6.015625 L 18.078125 0 Z M 6.453125 -8.78125 L 9.96875 -8.78125 C 10.976562 -8.78125 11.757812 -9.03125 12.3125 -9.53125 C 12.875 -10.03125 13.15625 -10.757812 13.15625 -11.71875 C 13.15625 -12.65625 12.875 -13.367188 12.3125 -13.859375 C 11.757812 -14.347656 10.976562 -14.59375 9.96875 -14.59375 L 6.453125 -14.59375 Z M 6.453125 -8.78125 "/></g></g></g><g fill="#ffffff" fill-opacity="1"><g transform="translate(604.746633, 219.131806)"><g><path d="M 6.453125 0 L 1.828125 0 L 1.828125 -18.234375 L 6.453125 -18.234375 Z M 6.453125 0 "/></g></g></g><g fill="#ffffff" fill-opacity="1"><g transform="translate(617.142095, 219.131806)"><g><path d="M 22.328125 0 L 17.5625 0 L 14.171875 -12.609375 L 10.734375 0 L 5.9375 0 L -0.03125 -18.234375 L 4.921875 -18.234375 L 8.484375 -4.8125 L 11.984375 -18.234375 L 16.515625 -18.234375 L 20.078125 -4.8125 L 23.59375 -18.234375 L 28.34375 -18.234375 Z M 22.328125 0 "/></g></g></g><g fill="#ffffff" fill-opacity="1"><g transform="translate(649.405369, 219.131806)"><g><path d="M 13.9375 -3.359375 L 5.96875 -3.359375 L 4.640625 0 L -0.125 0 L 7.734375 -18.234375 L 12.5 -18.234375 L 20.1875 0 L 15.234375 0 Z M 12.578125 -6.875 L 9.96875 -13.625 L 7.3125 -6.875 Z M 12.578125 -6.875 "/></g></g></g></svg>